<svg width="24" height="24" viewBox="0 0 24 24" fill="none" xmlns="http://www.w3.org/2000/svg">
<path fill-rule="evenodd" clip-rule="evenodd" d="M9.95299 20.0494L10.2921 19.7102C10.7451 19.2573 11.3594 19.0029 11.9999 19.0029V19.0029C12.6405 19.0029 13.2548 19.2573 13.7077 19.7103L14.0469 20.0494C14.6579 20.6605 15.4867 21.0037 16.3508 21.0037H16.745C18.5445 21.0037 20.0032 19.5449 20.0032 17.7454V17.7454C20.0032 16.656 19.4588 15.6387 18.5523 15.0344V15.0344C17.5325 14.3545 16.6829 13.4488 16.0696 12.3876L15.1492 10.7955C14.5065 9.68355 13.3197 8.99872 12.0354 8.99872V8.99872C10.7721 8.99872 9.60138 9.66156 8.9514 10.7449L7.92122 12.4618C7.31322 13.4752 6.48779 14.3408 5.50453 14.9963L5.44751 15.0344C4.54106 15.6387 3.99658 16.656 3.99658 17.7454V17.7454C3.99658 19.5449 5.45537 21.0037 7.25488 21.0037H7.64904C8.51319 21.0037 9.34195 20.6604 9.95299 20.0494V20.0494Z" stroke="black" stroke-width="1.5" stroke-linecap="round" stroke-linejoin="round"/>
<circle cx="4.49721" cy="9.49898" r="1.50063" stroke="black" stroke-width="1.5" stroke-linecap="round" stroke-linejoin="round"/>
<circle cx="19.5031" cy="9.49898" r="1.50063" stroke="black" stroke-width="1.5" stroke-linecap="round" stroke-linejoin="round"/>
<circle cx="8.78432" cy="4.49684" r="1.50063" stroke="black" stroke-width="1.5" stroke-linecap="round" stroke-linejoin="round"/>
<circle cx="15.216" cy="4.49684" r="1.50063" stroke="black" stroke-width="1.5" stroke-linecap="round" stroke-linejoin="round"/>
</svg>
