<svg width="25" height="24" viewBox="0 0 25 24" fill="none" xmlns="http://www.w3.org/2000/svg">
<path d="M12.7529 5L17.6822 10" stroke="black" stroke-width="1.5" stroke-linecap="round" stroke-linejoin="round"/>
<path fill-rule="evenodd" clip-rule="evenodd" d="M14.2319 6.5L17.1895 3.5L19.1612 5.5L16.2036 8.5L14.2319 6.5Z" stroke="black" stroke-width="1.5" stroke-linecap="round" stroke-linejoin="round"/>
<path d="M3.88037 19L5.85208 17" stroke="black" stroke-width="1.5" stroke-linecap="round" stroke-linejoin="round"/>
<path d="M20.147 6.5L16.2036 2.5" stroke="black" stroke-width="1.5" stroke-linecap="round" stroke-linejoin="round"/>
<ellipse cx="17.6822" cy="17" rx="3.94343" ry="4" stroke="black" stroke-width="1.5" stroke-linecap="round" stroke-linejoin="round"/>
<path d="M18.9148 17.0004L16.4502 16.9996" stroke="black" stroke-width="1.5" stroke-linecap="round" stroke-linejoin="round"/>
<path d="M17.6836 15.75L17.6829 18.25" stroke="black" stroke-width="1.5" stroke-linecap="round" stroke-linejoin="round"/>
<path d="M11.2741 15.5L10.4924 16.2929C10.3076 16.4804 10.0568 16.5858 9.79533 16.5858C9.53386 16.5858 9.2831 16.4804 9.09822 16.2929L6.54901 13.7071C6.36412 13.5196 6.26025 13.2652 6.26025 13C6.26025 12.7348 6.36412 12.4804 6.54901 12.2929L13.2458 5.5L17.1893 9.5" stroke="black" stroke-width="1.5" stroke-linecap="round" stroke-linejoin="round"/>
<path fill-rule="evenodd" clip-rule="evenodd" d="M8.80957 16L7.53497 17.2929C7.14997 17.6834 6.52576 17.6834 6.14076 17.2929L5.56325 16.7071C5.17825 16.3166 5.17825 15.6834 5.56325 15.2929L6.83785 14L8.80957 16Z" stroke="black" stroke-width="1.5" stroke-linecap="round" stroke-linejoin="round"/>
</svg>
