<svg width="25" height="24" viewBox="0 0 25 24" fill="none" xmlns="http://www.w3.org/2000/svg">
<path d="M9.30286 18.0025H5.35779C4.26839 18.0025 3.38525 17.1067 3.38525 16.0016V5.99748C3.38525 4.89245 4.26839 3.99664 5.35779 3.99664H17.193C18.2824 3.99664 19.1655 4.89245 19.1655 5.99748V10.9996" stroke="#323232" stroke-width="1.5" stroke-linecap="round" stroke-linejoin="round"/>
<path d="M19.1655 8.99874H3.38525" stroke="#323232" stroke-width="1.5" stroke-linecap="round" stroke-linejoin="round"/>
<path d="M7.82455 2.49603V5.49728" stroke="#323232" stroke-width="1.5" stroke-linecap="round" stroke-linejoin="round"/>
<path d="M14.7284 2.49603V5.49728" stroke="#323232" stroke-width="1.5" stroke-linecap="round" stroke-linejoin="round"/>
<path fill-rule="evenodd" clip-rule="evenodd" d="M16.2068 17.0021V17.0021C17.841 17.0021 19.1657 18.3458 19.1657 20.0033V20.0033C19.1657 20.5558 18.7241 21.0037 18.1794 21.0037H14.2343C13.6896 21.0037 13.248 20.5558 13.248 20.0033V20.0033C13.248 18.3458 14.5727 17.0021 16.2068 17.0021Z" stroke="#323232" stroke-width="1.5" stroke-linecap="round" stroke-linejoin="round"/>
<path d="M13.2488 14.7511C13.1126 14.7517 13.0025 14.8639 13.0028 15.0019C13.0032 15.1399 13.1139 15.2515 13.2502 15.2514C13.3864 15.2512 13.4968 15.1392 13.4968 15.0012C13.4971 14.9347 13.471 14.8707 13.4244 14.8237C13.3778 14.7768 13.3146 14.7506 13.2488 14.7511" stroke="#323232" stroke-width="1.5" stroke-linecap="round" stroke-linejoin="round"/>
<path d="M19.1663 14.7511C19.0301 14.7517 18.92 14.8639 18.9203 15.0019C18.9207 15.1399 19.0314 15.2515 19.1676 15.2514C19.3039 15.2512 19.4143 15.1392 19.4143 15.0012C19.4146 14.9347 19.3885 14.8707 19.3419 14.8237C19.2953 14.7768 19.2321 14.7506 19.1663 14.7511" stroke="#323232" stroke-width="1.5" stroke-linecap="round" stroke-linejoin="round"/>
<path d="M16.2078 13.7507C16.0716 13.7513 15.9615 13.8635 15.9618 14.0015C15.9622 14.1395 16.0729 14.2511 16.2091 14.2509C16.3454 14.2507 16.4558 14.1388 16.4558 14.0008C16.4561 13.9342 16.43 13.8703 16.3834 13.8233C16.3368 13.7763 16.2736 13.7502 16.2078 13.7507" stroke="#323232" stroke-width="1.5" stroke-linecap="round" stroke-linejoin="round"/>
</svg>
