<svg width="24" height="24" viewBox="0 0 24 24" fill="none" xmlns="http://www.w3.org/2000/svg">
<path d="M13.0005 19.9133H21.0038" stroke="#323232" stroke-width="1.5" stroke-linecap="round" stroke-linejoin="round"/>
<path d="M19.7834 9.77905V19.9133" stroke="#323232" stroke-width="1.5" stroke-linecap="round" stroke-linejoin="round"/>
<path d="M13.0005 13.0004H16.0017V16.0017H13.0005" stroke="#323232" stroke-width="1.5" stroke-linecap="round" stroke-linejoin="round"/>
<path fill-rule="evenodd" clip-rule="evenodd" d="M4.29667 9.77707C3.52805 9.80524 2.80048 9.43012 2.37762 8.78766C1.95476 8.14519 1.89796 7.32858 2.22781 6.63376L3.94452 3.25535C4.35719 2.47184 5.17391 1.98543 6.0594 1.99583H17.9404C18.826 1.98575 19.6429 2.472 20.0562 3.25535L21.7729 6.63376C22.1029 7.32875 22.046 8.14557 21.6229 8.7881C21.1998 9.43063 20.4719 9.8056 19.7031 9.77707C18.3997 9.87888 17.2562 8.91498 17.136 7.61317V7.56515C17.0306 8.88111 15.886 9.86733 14.5689 9.77707C13.2511 9.86847 12.1053 8.88195 11.9999 7.56515C11.8945 8.88111 10.7499 9.86733 9.43281 9.77707C8.11572 9.86733 6.97116 8.88111 6.86574 7.56515V7.61317C6.74451 8.91528 5.60044 9.87892 4.29667 9.77707Z" stroke="#323232" stroke-width="1.5" stroke-linecap="round" stroke-linejoin="round"/>
<path fill-rule="evenodd" clip-rule="evenodd" d="M6.24783 16.0016V16.0016C7.90538 16.0016 9.24908 17.3454 9.24908 19.0029V19.0029C9.24908 19.5554 8.80118 20.0033 8.24867 20.0033H4.247C3.69448 20.0033 3.24658 19.5554 3.24658 19.0029V19.0029C3.24658 17.3454 4.59029 16.0016 6.24783 16.0016Z" stroke="#323232" stroke-width="1.5" stroke-linecap="round" stroke-linejoin="round"/>
<path d="M3.2453 13.7507C3.1073 13.7513 2.99583 13.8635 2.9962 14.0015C2.99657 14.1395 3.10864 14.2511 3.24663 14.2509C3.38463 14.2507 3.4964 14.1388 3.49641 14.0008C3.49667 13.9342 3.47027 13.8703 3.42309 13.8233C3.37592 13.7763 3.31189 13.7502 3.2453 13.7507" stroke="#323232" stroke-width="1.5" stroke-linecap="round" stroke-linejoin="round"/>
<path d="M9.24774 13.7507C9.10974 13.7513 8.99827 13.8635 8.99864 14.0015C8.99901 14.1395 9.11108 14.2511 9.24907 14.2509C9.38707 14.2507 9.49885 14.1388 9.49885 14.0008C9.49912 13.9342 9.47271 13.8703 9.42554 13.8233C9.37836 13.7763 9.31433 13.7502 9.24774 13.7507" stroke="#323232" stroke-width="1.5" stroke-linecap="round" stroke-linejoin="round"/>
<path d="M6.24677 12.7503C6.10877 12.7508 5.9973 12.8631 5.99766 13.0011C5.99803 13.1391 6.1101 13.2507 6.2481 13.2505C6.3861 13.2503 6.49787 13.1384 6.49787 13.0004C6.49814 12.9338 6.47174 12.8699 6.42456 12.8229C6.37738 12.7759 6.31335 12.7498 6.24677 12.7503" stroke="#323232" stroke-width="1.5" stroke-linecap="round" stroke-linejoin="round"/>
</svg>
