<svg width="24" height="24" viewBox="0 0 24 24" fill="none" xmlns="http://www.w3.org/2000/svg">
<path fill-rule="evenodd" clip-rule="evenodd" d="M21 16.2C21 15.7582 20.6418 15.4 20.2 15.4H18.6V13.8C18.6 13.3582 18.2418 13 17.8 13H16.2C15.7582 13 15.4 13.3582 15.4 13.8V15.4H13.8C13.3582 15.4 13 15.7582 13 16.2V17.8C13 18.2418 13.3582 18.6 13.8 18.6H15.4V20.2C15.4 20.6418 15.7582 21 16.2 21H17.8C18.2418 21 18.6 20.6418 18.6 20.2V18.6H20.2C20.6418 18.6 21 18.2418 21 17.8V16.2Z" stroke="#323232" stroke-width="1.5" stroke-linecap="round" stroke-linejoin="round"/>
<path d="M7 8H16" stroke="#323232" stroke-width="1.5" stroke-linecap="round" stroke-linejoin="round"/>
<path d="M7 12H12" stroke="#323232" stroke-width="1.5" stroke-linecap="round" stroke-linejoin="round"/>
<path d="M7 16H9" stroke="#323232" stroke-width="1.5" stroke-linecap="round" stroke-linejoin="round"/>
<path d="M20 10V6C20 4.34315 18.6569 3 17 3H6C4.34315 3 3 4.34315 3 6V18C3 19.6569 4.34315 21 6 21H10" stroke="#323232" stroke-width="1.5" stroke-linecap="round" stroke-linejoin="round"/>
</svg>
