<svg width="24" height="24" viewBox="0 0 24 24" fill="none" xmlns="http://www.w3.org/2000/svg">
<path d="M9 8V4C9 3.44772 8.55228 3 8 3H6C5.44772 3 5 3.44772 5 4V8" stroke="#323232" stroke-width="1.5" stroke-linecap="round" stroke-linejoin="round"/>
<rect x="22" y="11" width="8" height="3" rx="1" transform="rotate(180 22 11)" stroke="#323232" stroke-width="1.5" stroke-linecap="round" stroke-linejoin="round"/>
<path d="M20 8V4.5C20 3.67157 19.3284 3 18.5 3H17.5C16.6716 3 16 3.67157 16 4.5V8" stroke="#323232" stroke-width="1.5" stroke-linecap="round" stroke-linejoin="round"/>
<path d="M16 11V18.5858C16 19.1162 16.2107 19.6249 16.5858 20L17.2929 20.7071C17.4804 20.8946 17.7348 21 18 21C18.2652 21 18.5196 20.8946 18.7071 20.7071L19.4142 20C19.7893 19.6249 20 19.1162 20 18.5858V11" stroke="#323232" stroke-width="1.5" stroke-linecap="round" stroke-linejoin="round"/>
<path fill-rule="evenodd" clip-rule="evenodd" d="M4 11L2.58579 12.4142C2.21071 12.7893 2 13.298 2 13.8284V19C2 20.1046 2.89543 21 4 21H10C11.1046 21 12 20.1046 12 19V13.8284C12 13.298 11.7893 12.7893 11.4142 12.4142L10 11V9C10 8.44772 9.55228 8 9 8H5C4.44772 8 4 8.44772 4 9V11Z" stroke="#323232" stroke-width="1.5" stroke-linecap="round" stroke-linejoin="round"/>
<path d="M4 11H10" stroke="#323232" stroke-width="1.5" stroke-linecap="round" stroke-linejoin="round"/>
<path d="M2 14H7C7.55228 14 8 14.4477 8 15V17C8 17.5523 7.55228 18 7 18H2" stroke="#323232" stroke-width="1.5" stroke-linecap="round" stroke-linejoin="round"/>
</svg>
