<svg width="14" height="14" viewBox="0 0 14 14" fill="none" xmlns="http://www.w3.org/2000/svg">
<path d="M6.29336 3.05336C6.5272 3.01751 6.76345 2.99968 7.00002 3.00002C9.12002 3.00002 11.1134 4.52669 12.2734 7.00002C12.0959 7.37642 11.8956 7.74155 11.6734 8.09336C11.6028 8.20256 11.5657 8.33001 11.5667 8.46002C11.5682 8.60551 11.6172 8.74653 11.7063 8.86154C11.7954 8.97655 11.9197 9.05926 12.0603 9.09703C12.2008 9.1348 12.3498 9.12557 12.4845 9.07074C12.6193 9.01591 12.7325 8.91849 12.8067 8.79336C13.1173 8.30531 13.3871 7.79246 13.6134 7.26002C13.6491 7.17684 13.6676 7.08724 13.6676 6.99669C13.6676 6.90614 13.6491 6.81654 13.6134 6.73336C12.2667 3.60669 9.73336 1.66669 7.00002 1.66669C6.68713 1.66511 6.37475 1.69189 6.06669 1.74669C5.97914 1.76157 5.89538 1.79355 5.82019 1.84081C5.74501 1.88806 5.67986 1.94966 5.62848 2.02209C5.5771 2.09452 5.54048 2.17636 5.52073 2.26294C5.50098 2.34952 5.49847 2.43914 5.51336 2.52669C5.52824 2.61424 5.56022 2.698 5.60747 2.77318C5.65473 2.84837 5.71633 2.91352 5.78876 2.9649C5.86119 3.01628 5.94303 3.05289 6.02961 3.07265C6.11619 3.0924 6.20581 3.09491 6.29336 3.08002V3.05336ZM1.47336 0.526689C1.4112 0.464529 1.3374 0.415222 1.25619 0.381582C1.17497 0.347942 1.08793 0.330627 1.00002 0.330627C0.912116 0.330627 0.82507 0.347942 0.743856 0.381582C0.662641 0.415222 0.588848 0.464529 0.526689 0.526689C0.401153 0.652224 0.330627 0.822487 0.330627 1.00002C0.330627 1.17756 0.401153 1.34782 0.526689 1.47336L2.59336 3.53336C1.6504 4.44104 0.899926 5.52935 0.386688 6.73336C0.34998 6.81747 0.331032 6.90825 0.331032 7.00002C0.331032 7.09179 0.34998 7.18258 0.386688 7.26669C1.73336 10.3934 4.26669 12.3334 7.00002 12.3334C8.19809 12.3251 9.36787 11.9684 10.3667 11.3067L12.5267 13.4734C12.5887 13.5358 12.6624 13.5854 12.7436 13.6193C12.8249 13.6531 12.912 13.6706 13 13.6706C13.088 13.6706 13.1752 13.6531 13.2564 13.6193C13.3376 13.5854 13.4114 13.5358 13.4734 13.4734C13.5358 13.4114 13.5854 13.3376 13.6193 13.2564C13.6531 13.1752 13.6706 13.088 13.6706 13C13.6706 12.912 13.6531 12.8249 13.6193 12.7436C13.5854 12.6624 13.5358 12.5887 13.4734 12.5267L1.47336 0.526689ZM5.71336 6.65336L7.34669 8.28669C7.23401 8.319 7.11723 8.33472 7.00002 8.33336C6.6464 8.33336 6.30726 8.19288 6.05721 7.94283C5.80717 7.69278 5.66669 7.35364 5.66669 7.00002C5.66532 6.88281 5.68104 6.76603 5.71336 6.65336ZM7.00002 11C4.88002 11 2.88669 9.47336 1.73336 7.00002C2.16408 6.04919 2.7754 5.19107 3.53336 4.47336L4.71336 5.66669C4.43619 6.17255 4.33052 6.75465 4.41219 7.32566C4.49387 7.89667 4.7585 8.4258 5.16637 8.83367C5.57425 9.24155 6.10338 9.50617 6.67438 9.58785C7.24539 9.66953 7.82749 9.56386 8.33336 9.28669L9.39336 10.3334C8.66742 10.7606 7.84231 10.9904 7.00002 11Z" fill="#3E3E40"/>
</svg>
